Coordinates
version=1
nRows=21
nColumns=22
inDegrees=yes

Units are S.I. units (second, meters, Newtons, ...)
If the header above contains a line with 'inDegrees', this indicates whether rotational values are in degrees (yes) or radians (no).

endheader
time	pelvis_tilt	pelvis_list	pelvis_rotation	pelvis_tx	pelvis_ty	pelvis_tz	hip_flexion_r	hip_adduction_r	hip_rotation_r	knee_angle_r	ankle_angle_r	subtalar_angle_r	hip_flexion_l	hip_adduction_l	hip_rotation_l	knee_angle_l	ankle_angle_l	subtalar_angle_l	lumbar_extension	lumbar_bending	lumbar_rotation
      1.64000000	     -7.46623454	     -1.38625012	    103.60093561	     -0.60528060	      0.93260316	      0.33970080	     23.29050736	     -6.52213894	     -1.63365702	    -67.58339554	      0.31780810	      0.30024818	      5.46785952	      6.47110082	     -1.57683289	    -18.62809374	     11.13996203	      7.29138470	    -10.67458260	    -10.15709791	     -8.33013786
      1.65000000	     -7.41912044	     -1.20514448	    103.40421106	     -0.60711536	      0.93290484	      0.33206457	     24.21886452	     -6.24417270	     -1.83735718	    -66.37997668	      1.11301213	      0.20966973	      4.58049247	      6.39905416	     -1.76704838	    -18.32499573	     11.42189856	      7.11387804	    -10.91505131	    -10.00882378	     -8.96106070
      1.66000000	     -7.35990165	     -1.07329083	    103.19826543	     -0.60885530	      0.93300154	      0.32442277	     25.11744231	     -5.98346322	     -2.07300986	    -64.93519991	      1.80318022	      0.15691849	      3.76116934	      6.32769543	     -1.97601176	    -18.04138951	     11.72405451	      6.87701003	    -11.09200841	     -9.86514582	     -9.57436652
      1.67000000	     -7.28763810	     -1.00246518	    102.98748174	     -0.61053975	      0.93286382	      0.31676308	     25.99271553	     -5.75394358	     -2.35895402	    -63.25929988	      2.42395970	      0.14949288	      3.02987511	      6.25947509	     -2.21861991	    -17.79395559	     12.06009686	      6.61079031	    -11.19360113	     -9.71834684	    -10.16044588
      1.68000000	     -7.20654013	     -0.97623673	    102.76680564	     -0.61213756	      0.93253621	      0.30908561	     26.81965897	     -5.54286654	     -2.67705696	    -61.34827747	      2.93786238	      0.14930743	      2.36283544	      6.19502168	     -2.47765413	    -17.57204929	     12.42020402	      6.27724108	    -11.24496223	     -9.57261714	    -10.73425878
      1.69000000	     -7.11512119	     -1.00217187	    102.54043309	     -0.61368504	      0.93198906	      0.30134896	     27.60159912	     -5.37305844	     -3.07600775	    -59.21893458	      3.39243698	      0.16693262	      1.77681848	      6.13216413	     -2.77310980	    -17.40185018	     12.81232645	      5.96855087	    -11.22967717	     -9.42261467	    -11.27415918
      1.70000000	     -7.01176405	     -1.05959349	    102.30511310	     -0.61511988	      0.93128193	      0.29356322	     28.30848162	     -5.21251469	     -3.52852681	    -56.86456799	      3.73824406	      0.16357194	      1.23804249	      6.06395287	     -3.06490542	    -17.25850548	     13.22122485	      5.61068492	    -11.18100063	     -9.27016610	    -11.79204143
      1.71000000	     -6.90542685	     -1.13264581	    102.04055794	     -0.61643197	      0.93045632	      0.28568812	     28.91669655	     -5.05343117	     -4.02045499	    -54.28865530	      3.95995736	      0.09268018	      0.71005551	      6.00408407	     -3.31526634	    -17.11856222	     13.62587306	      5.08585979	    -11.10694493	     -9.11752247	    -12.27041750
      1.72000000	     -6.77930536	     -1.23533644	    101.76801624	     -0.61760518	      0.92946503	      0.27774489	     29.44352103	     -4.88763533	     -4.58825226	    -51.51107399	      4.06836620	      0.02113937	      0.24944454	      5.92120742	     -3.57427916	    -17.05115333	     14.06127416	      4.71521229	    -10.99526548	     -8.95387814	    -12.72849730
      1.73000000	     -6.63712016	     -1.34821691	    101.47769575	     -0.61862205	      0.92836199	      0.26969647	     29.86126320	     -4.70659138	     -5.23672877	    -48.53825583	      4.05598547	     -0.08917128	     -0.19075727	      5.81686450	     -3.82718499	    -17.01007077	     14.49674912	      4.34751807	    -10.86499818	     -8.78099409	    -13.12892483
      1.74000000	     -6.47054780	     -1.49753041	    101.16926482	     -0.61944804	      0.92709705	      0.26157208	     30.20861105	     -4.48623720	     -5.93835723	    -45.39546444	      3.86505128	     -0.16325962	     -0.55708959	      5.68039650	     -4.09721553	    -17.03737731	     14.94817740	      4.13782200	    -10.68540224	     -8.59719067	    -13.50372711
      1.75000000	     -6.29823059	     -1.62304177	    100.83386643	     -0.62007494	      0.92578976	      0.25330214	     30.40944329	     -4.22732006	     -6.69942577	    -42.09444621	      3.53477694	     -0.28072764	     -0.96282886	      5.52456833	     -4.36087973	    -17.05546390	     15.41093868	      3.88451581	    -10.52410427	     -8.41283603	    -13.83196488
      1.76000000	     -6.12477616	     -1.76911741	    100.47402695	     -0.62052718	      0.92436329	      0.24490209	     30.52624056	     -3.93908920	     -7.51561936	    -38.67879141	      3.07198141	     -0.37500205	     -1.34962420	      5.36190299	     -4.63410874	    -17.08460593	     15.85430797	      3.68430359	    -10.32874226	     -8.24044398	    -14.10875178
      1.77000000	     -5.95568640	     -1.90099222	    100.10095318	     -0.62086496	      0.92287201	      0.23633686	     30.52149275	     -3.62817466	     -8.41226506	    -35.17975597	      2.51356993	     -0.44762798	     -1.76972297	      5.19349078	     -4.92381296	    -17.10570069	     16.31324822	      3.51277388	    -10.13898335	     -8.06747117	    -14.36752673
      1.78000000	     -5.80339733	     -2.02542914	     99.71820623	     -0.62108019	      0.92130083	      0.22759003	     30.42036649	     -3.30715535	     -9.40725965	    -31.65636564	      1.90815703	     -0.48363313	     -2.22245813	      5.03309463	     -5.22130698	    -17.11187191	     16.76114786	      3.38240932	     -9.94565875	     -7.91617274	    -14.60287423
      1.79000000	     -5.67301557	     -2.10048060	     99.33336960	     -0.62123327	      0.91971844	      0.21861118	     30.18029726	     -2.97630588	    -10.52223934	    -28.14795554	      1.37004326	     -0.48644747	     -2.78024572	      4.88870586	     -5.49041165	    -17.06091061	     17.17630747	      3.27825426	     -9.79262880	     -7.77203269	    -14.81616632
      1.80000000	     -5.56365317	     -2.20368842	     98.96131402	     -0.62133403	      0.91796784	      0.20945493	     29.93659231	     -2.65740166	    -11.78908445	    -24.76489450	      0.87966419	     -0.46308588	     -3.31825628	      4.76123432	     -5.78399332	    -17.02280175	     17.58413486	      3.22966750	     -9.59205098	     -7.65197657	    -15.04429487
      1.81000000	     -5.47239719	     -2.30351216	     98.61171986	     -0.62139027	      0.91609564	      0.20009921	     29.67142067	     -2.34042224	    -13.20880176	    -21.56751926	      0.57460410	     -0.42082887	     -3.88187066	      4.64558110	     -6.05718881	    -16.97759876	     17.99285162	      3.20826889	     -9.37905623	     -7.54667273	    -15.28403296
      1.82000000	     -5.39570314	     -2.39459337	     98.29140460	     -0.62143231	      0.91412173	      0.19055534	     29.39874686	     -2.02143638	    -14.74136676	    -18.61520224	      0.49680849	     -0.36410506	     -4.47203699	      4.53957074	     -6.28760580	    -16.93163160	     18.36750278	      3.20519651	     -9.15893676	     -7.44184978	    -15.54253686
      1.83000000	     -5.32749679	     -2.49236319	     98.00773901	     -0.62144135	      0.91202573	      0.18086462	     29.16247165	     -1.70115350	    -16.33821113	    -15.97664928	      0.64711585	     -0.30107199	     -5.05127358	      4.43272324	     -6.47850910	    -16.91666015	     18.72677478	      3.22039113	     -8.92136360	     -7.34134241	    -15.83396100
      1.84000000	     -5.25047220	     -2.60156922	     97.76488485	     -0.62144245	      0.90982664	      0.17103996	     28.97602187	     -1.37199093	    -17.93075761	    -13.69100885	      1.00283622	     -0.25600216	     -5.60061452	      4.30705009	     -6.62089811	    -16.95137850	     19.06462868	      3.25443477	     -8.65730507	     -7.21982337	    -16.15842701
